# xmcd
#
# Track frame offsets:
#       150
#       4149
#       7669
#       11062
#       14574
#       18173
#       21359
#       25586
#       29651
#       35128
#       41150
#       45046
#       51663
#       58280
#       63190
#       68100
#       72217
#       76281
#       80531
#       84781
#       89821
#       94763
#       98975
#       103724
#       108473
#       113164
#       117195
#       121676
#       126367
#       130762
#       135157
#       139450
#       143615
#       148406
#       152181
#       156469
#       160612
#       164412
#
# Disc length: 2238 seconds
#
# Revision: 0
# Processed by: cddbd v1.5.1PL2 Copyright (c) Steve Scherf et al.
# Submitted via: WaveLab 6.00a
#
DISCID=0608bc26
DTITLE=Summerfield Music, Inc. - Trailer Trash CD 1
DYEAR=1900
DGENRE=
TTITLE0=Bass Line    -  ( DRAMATIC BED )  TT CD 01
TTITLE1=Knock me down   -  ( DRAMATIC BED )  TT CD 01
TTITLE2=Techno Made   -  ( DRAMATIC BED )  TT CD 01
TTITLE3=Beat Two   -  ( DRAMATIC BED )  TT CD 01
TTITLE4=Knab Stabber    -  ( DRAMATIC BED )  TT CD 01
TTITLE5=What Drama   -  ( DRAMATIC BED )  TT CD 01
TTITLE6=Deadly Sin   -  ( DRAMATIC BED )  TT CD 01
TTITLE7=Deadly Sin (SUB)   -  ( DRAMATIC BED )  TT CD 01
TTITLE8=Calculated Risk   -  ( DRAMATIC BED )  TT CD 01
TTITLE9=Drone Zone   -  ( DRAMATIC BED )  TT CD 01
TTITLE10=Pulsar   -  ( DRAMATIC BED )  TT CD 01
TTITLE11=Stuck in it   -  ( DRAMATIC BED )  TT CD 01
TTITLE12=Stuck in it - ALT.   -  ( DRAMATIC BED )  TT CD 01
TTITLE13=Overdose   -  ( DRAMATIC BED )  TT CD 01
TTITLE14=Overdose - ALT.   -  ( DRAMATIC BED )  TT CD 01
TTITLE15=Crime In time   -  ( DRAMATIC BED )  TT CD 01
TTITLE16=Matinee Chase   -  ( DRAMATIC BED )  TT CD 01
TTITLE17=Face off   -  ( DRAMATIC BED )  TT CD 01
TTITLE18=Face off - ALT.  -  ( DRAMATIC BED )  TT CD 01
TTITLE19=Dark Room   -  ( DRAMATIC BED )  TT CD 01
TTITLE20=Breaking Point   -  ( DRAMATIC BED )  TT CD 01
TTITLE21=Search for life   -  ( DRAMATIC BED )  TT CD 01
TTITLE22=Metal Chase   -  ( DRAMATIC BED )  TT CD 01
TTITLE23=Metal Chase - ALT  -  ( DRAMATIC BED )  TT CD 01
TTITLE24=Espionage   -  ( DRAMATIC BED )  TT CD 01
TTITLE25=Cheese Chase   -  ( DRAMATIC BED )  TT CD 01
TTITLE26=Dark Down Under   -  ( DRAMATIC BED )  TT CD 01
TTITLE27=No Time  -  ( DRAMATIC BED )  TT CD 01
TTITLE28=Guitar Drama    -  ( DRAMATIC BED )  TT CD 01
TTITLE29=Guitar Drama ( No Gtr)  -  ( DRAMATIC BED )  TT CD 01
TTITLE30=Gothic Guitar   -  ( DRAMATIC BED )  TT CD 01
TTITLE31=Gothic Guitar ( No Gtr)   -  ( DRAMATIC BED )  TT CD 01
TTITLE32=Gamilon   -  ( DRAMATIC BED )  TT CD 01
TTITLE33=Dark P   -  ( DRAMATIC BED )  TT CD 01
TTITLE34=Minds Eye   -  ( DRAMATIC BED )  TT CD 01
TTITLE35=Hammer On   -  ( DRAMATIC BED )  TT CD 01
TTITLE36=Sacrifice   -  ( DRAMATIC BED )  TT CD 01
TTITLE37=Tribalism  -  ( DRAMATIC BED )  TT CD 01
EXTD=
EXTT0=
EXTT1=
EXTT2=
EXTT3=
EXTT4=
EXTT5=
EXTT6=
EXTT7=
EXTT8=
EXTT9=
EXTT10=
EXTT11=
EXTT12=
EXTT13=
EXTT14=
EXTT15=
EXTT16=
EXTT17=
EXTT18=
EXTT19=
EXTT20=
EXTT21=
EXTT22=
EXTT23=
EXTT24=
EXTT25=
EXTT26=
EXTT27=
EXTT28=
EXTT29=
EXTT30=
EXTT31=
EXTT32=
EXTT33=
EXTT34=
EXTT35=
EXTT36=
EXTT37=
PLAYORDER=
